<?xml version="1.0" encoding="UTF-8"?>
<svg version="1.1" xmlns="http://www.w3.org/2000/svg" width="64" height="64">
<path d="M0 0 C21.12 0 42.24 0 64 0 C64 21.12 64 42.24 64 64 C42.88 64 21.76 64 0 64 C0 42.88 0 21.76 0 0 Z " fill="#010000" transform="translate(0,0)"/>
<path d="M0 0 C0 0.66 0 1.32 0 2 C0.94875 2.28875 1.8975 2.5775 2.875 2.875 C6 4 6 4 8 6 C8 6.99 8 7.98 8 9 C8.99 9 9.98 9 11 9 C11 14.61 11 20.22 11 26 C10.01 26 9.02 26 8 26 C8 22.37 8 18.74 8 15 C7.34 15 6.68 15 6 15 C6 15.66 6 16.32 6 17 C4.35 17.66 2.7 18.32 1 19 C-0.65 17.68 -2.3 16.36 -4 15 C-4.33 15.66 -4.66 16.32 -5 17 C-4.2308002 18.72682581 -4.2308002 18.72682581 -3.0625 20.5 C-1 23.8 -1 23.8 -1 26 C-2.32 26 -3.64 26 -5 26 C-5.33 24.68 -5.66 23.36 -6 22 C-6.66 22 -7.32 22 -8 22 C-8 22.66 -8 23.32 -8 24 C-8.69867188 23.97679688 -9.39734375 23.95359375 -10.1171875 23.9296875 C-11.48230469 23.90261719 -11.48230469 23.90261719 -12.875 23.875 C-13.77992187 23.85179688 -14.68484375 23.82859375 -15.6171875 23.8046875 C-18.18806994 23.75675164 -18.18806994 23.75675164 -20 26 C-22.125 25.625 -22.125 25.625 -24 25 C-22.88407791 22.99492073 -21.75701288 20.99603904 -20.625 19 C-19.99851562 17.88625 -19.37203125 16.7725 -18.7265625 15.625 C-18.15679687 14.75875 -17.58703125 13.8925 -17 13 C-16.34 13 -15.68 13 -15 13 C-14.34 10.69 -13.68 8.38 -13 6 C-13.99 6.33 -14.98 6.66 -16 7 C-14.66741031 3.00223094 -12.71928773 2.06288157 -9.2109375 -0.05859375 C-5.75293881 -1.53099248 -3.57064198 -0.96704887 0 0 Z " fill="#0B0A07" transform="translate(37,15)"/>
<path d="M0 0 C3.08089673 2.77280706 4.68775452 5.06326356 6 9 C6.66 9 7.32 9 8 9 C12 15.75 12 15.75 12 18 C10.68 18 9.36 18 8 18 C7.67 16.68 7.34 15.36 7 14 C6.34 14 5.68 14 5 14 C5 14.66 5 15.32 5 16 C4.30132812 15.97679687 3.60265625 15.95359375 2.8828125 15.9296875 C1.51769531 15.90261719 1.51769531 15.90261719 0.125 15.875 C-0.77992187 15.85179687 -1.68484375 15.82859375 -2.6171875 15.8046875 C-5.18806994 15.75675164 -5.18806994 15.75675164 -7 18 C-9.125 17.625 -9.125 17.625 -11 17 C-9.88407791 14.99492073 -8.75701288 12.99603904 -7.625 11 C-6.99851562 9.88625 -6.37203125 8.7725 -5.7265625 7.625 C-5.15679687 6.75875 -4.58703125 5.8925 -4 5 C-3.34 5 -2.68 5 -2 5 C-1.34 3.35 -0.68 1.7 0 0 Z " fill="#1D1809" transform="translate(24,23)"/>
<path d="M0 0 C6.64503043 3.70588235 6.64503043 3.70588235 9.1875 5.8125 C10.92757804 7.21057714 10.92757804 7.21057714 13.0625 6.875 C15.08510198 6.09896082 15.08510198 6.09896082 16.5625 4.4375 C17.036875 3.963125 17.51125 3.48875 18 3 C18.99 3 19.98 3 21 3 C21 8.61 21 14.22 21 20 C20.01 20 19.02 20 18 20 C18 16.37 18 12.74 18 9 C17.34 9 16.68 9 16 9 C16 9.66 16 10.32 16 11 C14.35 11.66 12.7 12.32 11 13 C9.35 11.68 7.7 10.36 6 9 C5.01 9.495 5.01 9.495 4 10 C0 3.375 0 3.375 0 0 Z " fill="#EAEAEA" transform="translate(27,21)"/>
<path d="M0 0 C0.66 0 1.32 0 2 0 C2 6.27 2 12.54 2 19 C-2.38738988 20.88030995 -6.49220966 22.57070062 -11 24 C-11 24.66 -11 25.32 -11 26 C-14.60441772 26.95659766 -16.36805226 27.31063347 -19.7734375 25.63671875 C-20.63195312 24.99347656 -21.49046875 24.35023437 -22.375 23.6875 C-23.24898437 23.05199219 -24.12296875 22.41648437 -25.0234375 21.76171875 C-25.67570312 21.18035156 -26.32796875 20.59898438 -27 20 C-27 19.34 -27 18.68 -27 18 C-22.25 19.875 -22.25 19.875 -20 21 C-20 21.66 -20 22.32 -20 23 C-14.94990405 23.93786082 -14.94990405 23.93786082 -10 23 C-10 22.34 -10 21.68 -10 21 C-8.02 20.01 -6.04 19.02 -4 18 C-4 14.37 -4 10.74 -4 7 C-3.34 7 -2.68 7 -2 7 C-2 10.63 -2 14.26 -2 18 C-1.01 18 -0.02 18 1 18 C0.67 12.06 0.34 6.12 0 0 Z " fill="#83765F" transform="translate(47,23)"/>
<path d="M0 0 C3.08089673 2.77280706 4.68775452 5.06326356 6 9 C6.66 9 7.32 9 8 9 C12 15.75 12 15.75 12 18 C10.68 18 9.36 18 8 18 C6.078125 15.59375 6.078125 15.59375 4.25 12.5 C3.63640625 11.4790625 3.0228125 10.458125 2.390625 9.40625 C1.70226562 8.21515625 1.70226562 8.21515625 1 7 C-0.32 7.33 -1.64 7.66 -3 8 C-2.45276317 4.62537285 -1.9451 2.91765 0 0 Z " fill="#E5B840" transform="translate(24,23)"/>
<path d="M0 0 C0.33 0 0.66 0 1 0 C1 5.61 1 11.22 1 17 C0.01 17 -0.98 17 -2 17 C-2 13.37 -2 9.74 -2 6 C-3.32 6.33 -4.64 6.66 -6 7 C-5.02433888 5.83040013 -4.044375 4.66438823 -3.0625 3.5 C-2.51722656 2.8503125 -1.97195312 2.200625 -1.41015625 1.53125 C-0.71212891 0.77328125 -0.71212891 0.77328125 0 0 Z " fill="#FDFDFD" transform="translate(47,24)"/>
<path d="M0 0 C0 0.66 0 1.32 0 2 C0.969375 2.268125 1.93875 2.53625 2.9375 2.8125 C3.948125 3.204375 4.95875 3.59625 6 4 C6.33 4.99 6.66 5.98 7 7 C1.43478261 5.35573123 1.43478261 5.35573123 -1.0625 3.3125 C-2.92070538 1.77877071 -2.92070538 1.77877071 -5.25 2.0625 C-9.02543167 3.34957898 -12.48568589 5.12511779 -16 7 C-14.66741031 3.00223094 -12.71928773 2.06288157 -9.2109375 -0.05859375 C-5.75293881 -1.53099248 -3.57064198 -0.96704887 0 0 Z " fill="#A78128" transform="translate(37,15)"/>
<path d="M0 0 C0.33 0.99 0.66 1.98 1 3 C1.66 3.33 2.32 3.66 3 4 C1.02 6.97 -0.96 9.94 -3 13 C-4.32 12.67 -5.64 12.34 -7 12 C-4.69 8.04 -2.38 4.08 0 0 Z " fill="#C29227" transform="translate(20,28)"/>
<path d="M0 0 C4.75 1.875 4.75 1.875 7 3 C7 3.66 7 4.32 7 5 C11.71599818 5.92470553 14.67265609 6.22923777 19 4 C18.67 4.66 18.34 5.32 18 6 C17.34 6 16.68 6 16 6 C16 6.66 16 7.32 16 8 C12.39558228 8.95659766 10.63194774 9.31063347 7.2265625 7.63671875 C6.36804688 6.99347656 5.50953125 6.35023437 4.625 5.6875 C3.75101563 5.05199219 2.87703125 4.41648437 1.9765625 3.76171875 C1.32429688 3.18035156 0.67203125 2.59898438 0 2 C0 1.34 0 0.68 0 0 Z " fill="#B18929" transform="translate(20,41)"/>
<path d="M0 0 C2.55636103 1.27818051 2.62626316 2.17044944 3.5625 4.8125 C3.81128906 5.49957031 4.06007813 6.18664062 4.31640625 6.89453125 C4.97237659 8.91491989 5.51232694 10.93319514 6 13 C4.66104368 11.33784732 3.32869858 9.67036393 2 8 C1.401875 7.319375 0.80375 6.63875 0.1875 5.9375 C-1 4 -1 4 -0.6875 1.75 C-0.460625 1.1725 -0.23375 0.595 0 0 Z " fill="#312D24" transform="translate(25,19)"/>
<path d="M0 0 C3.125 -0.1875 3.125 -0.1875 6 0 C6.33 0.99 6.66 1.98 7 3 C4.03 3 1.06 3 -2 3 C-1.34 2.01 -0.68 1.02 0 0 Z " fill="#D0A131" transform="translate(22,36)"/>
<path d="M0 0 C1.875 0.1875 1.875 0.1875 4 1 C5.25 3.5625 5.25 3.5625 6 6 C4.68 6 3.36 6 2 6 C1.34 4.02 0.68 2.04 0 0 Z " fill="#DDB03A" transform="translate(30,35)"/>
<path d="M0 0 C1.32 0.33 2.64 0.66 4 1 C3.01 2.32 2.02 3.64 1 5 C-0.32 4.67 -1.64 4.34 -3 4 C-2.01 2.68 -1.02 1.36 0 0 Z " fill="#9B680A" transform="translate(16,36)"/>
</svg>
